<svg width="1127" height="177" viewBox="0 0 1127 177" fill="none" xmlns="http://www.w3.org/2000/svg">
<path d="M263.398 142.642C267.511 166.88 291.949 177 320.499 177C352.438 177 375.667 163.351 375.667 137.228C375.667 119.813 365.021 106.401 342.033 101.693L313.483 96.0449C305.738 94.4078 304.287 91.1031 304.287 87.8099C304.287 83.5724 307.675 78.6307 318.08 78.6307C329.935 78.6307 337.195 85.2209 338.404 92.5156L373.731 85.6911C368.893 65.2158 348.809 51.8049 318.564 51.8049C287.835 51.8049 266.301 67.5707 266.301 91.8113C266.301 110.402 279.125 122.168 301.628 126.166L326.307 130.875C335.257 132.513 338.404 135.581 338.404 139.581C338.404 144.76 332.838 148.994 322.678 148.994C312.273 148.994 302.837 145.229 301.144 135.109L263.398 142.642Z" fill="#999789"/>
<path d="M440.406 144.052C423.394 144.052 412.054 131.816 412.054 114.402C412.054 97.2214 423.394 84.7488 440.406 84.7488C452.454 84.7488 462.142 91.3392 465.448 105.694L500.889 97.2214C494.272 69.4533 469.23 51.8049 440.406 51.8049C404.965 51.8049 375.667 77.2201 375.667 114.402C375.667 151.819 404.965 177 440.406 177C469.937 177 494.982 158.88 500.889 130.875L466.157 123.345C462.142 137.7 452.454 144.052 440.406 144.052Z" fill="#999789"/>
<path d="M583.153 56.122C563.959 56.122 551.082 66.3338 542.658 80.5818V57.7855H505.207V177H542.658V139.714C542.658 108.843 556.937 95.0699 583.153 95.0699H589.939L591.567 57.0728C588.757 56.3619 586.417 56.1316 583.141 56.1316L583.153 56.122Z" fill="#999789"/>
<path d="M621.676 0C609.073 0 600.203 9.78738 600.203 21.2053C600.203 33.0926 609.073 41.9468 621.676 41.9468C634.281 41.9468 643.383 33.0926 643.383 21.2053C643.383 9.78738 634.281 0 621.676 0ZM640.347 172.683V55.6967H603.003V172.683H640.347Z" fill="#999789"/>
<path d="M801.034 51.8049C782.635 51.8049 768.482 59.5176 759.046 71.6767C751.025 58.8178 736.872 51.8049 720.357 51.8049C705.024 51.8049 693.466 57.1799 685.446 66.0652V55.3114H647.701V172.683H685.446V115.165C685.446 95.5258 694.41 85.4717 708.092 85.4717C719.414 85.4717 728.142 93.8899 728.142 107.216V172.683H765.887V115.165C765.887 95.5258 775.088 85.4717 789.005 85.4717C800.093 85.4717 808.82 93.8899 808.82 107.216V172.683H846.33V99.265C846.33 70.7405 826.276 51.8049 801.034 51.8049Z" fill="#999789"/>
<path d="M930.366 52.0115C914.854 52.0115 902.449 56.7095 893.142 64.9328V4.31707H854.966V173.477H893.142V164.077C902.449 172.302 914.854 177 930.366 177C962.099 177 988.824 151.861 988.824 114.505C988.824 77.3847 962.099 52.0115 930.366 52.0115ZM922.491 145.047C906.982 145.047 893.142 132.829 893.142 114.505C893.142 96.4123 906.982 83.9642 922.491 83.9642C939.192 83.9642 951.362 96.4123 951.362 114.505C951.362 132.829 939.192 145.047 922.491 145.047Z" fill="#999789"/>
<path d="M1127 55.3342H1088.82V64.7476C1079.52 56.5107 1067.11 51.8049 1051.6 51.8049C1019.87 51.8049 993.142 77.2201 993.142 114.402C993.142 151.819 1019.87 177 1051.6 177C1067.11 177 1079.52 172.294 1088.82 164.055V173.471H1127V55.3342ZM1059.47 144.995C1042.77 144.995 1030.6 132.756 1030.6 114.402C1030.6 96.2791 1042.77 83.8104 1059.47 83.8104C1074.98 83.8104 1088.82 96.2791 1088.82 114.402C1088.82 132.756 1074.98 144.995 1059.47 144.995Z" fill="#999789"/>
<path d="M198.212 47.4883H117.002C107.233 47.4883 99.3142 55.1976 99.3142 64.7076V69.1228C99.3142 78.6327 107.233 86.3419 117.002 86.3419H198.212C207.981 86.3419 215.9 78.6327 215.9 69.1228V64.7076C215.9 55.1976 207.981 47.4883 198.212 47.4883Z" fill="#999789"/>
<path d="M153.332 94.9761H114.384C106.061 94.9761 99.3142 101.829 99.3142 110.282V114.207C99.3142 122.66 106.061 129.513 114.384 129.513H153.332C161.655 129.513 168.402 122.66 168.402 114.207V110.282C168.402 101.829 161.655 94.9761 153.332 94.9761Z" fill="#999789"/>
<path d="M150.714 133.83H69.5043C59.7354 133.83 51.8161 141.539 51.8161 151.049V155.464C51.8161 164.974 59.7354 172.683 69.5043 172.683H150.714C160.483 172.683 168.402 164.974 168.402 155.464V151.049C168.402 141.539 160.483 133.83 150.714 133.83Z" fill="#999789"/>
<path d="M21.8859 133.83H16.9762C7.60054 133.83 0 141.539 0 151.049V155.464C0 164.974 7.60054 172.683 16.9762 172.683H21.8859C31.2616 172.683 38.8621 164.974 38.8621 155.464V151.049C38.8621 141.539 31.2616 133.83 21.8859 133.83Z" fill="#999789"/>
</svg>
